<svg width="40" height="40" viewBox="0 0 40 40" fill="none" xmlns="http://www.w3.org/2000/svg">
<path d="M0 13.4167C0 8.67091 0 6.29803 0.938221 4.49188C1.72885 2.96985 2.96985 1.72885 4.49188 0.938221C6.29803 0 8.67091 0 13.4167 0H26.5833C31.3291 0 33.702 0 35.5081 0.938221C37.0301 1.72885 38.2711 2.96985 39.0618 4.49188C40 6.29803 40 8.67091 40 13.4167V26.5833C40 31.3291 40 33.702 39.0618 35.5081C38.2711 37.0301 37.0301 38.2711 35.5081 39.0618C33.702 40 31.3291 40 26.5833 40H13.4167C8.67091 40 6.29803 40 4.49188 39.0618C2.96985 38.2711 1.72885 37.0301 0.938221 35.5081C0 33.702 0 31.3291 0 26.5833V13.4167Z" fill="url(#paint0_linear_9_568)"/>
<path d="M27.7777 25.5555L28.6666 19.9999H23.3333V16.111C23.3333 14.5555 23.8889 13.3333 26.3333 13.3333H28.8889V8.22215C27.4444 7.99993 25.8889 7.77771 24.4444 7.77771C19.8888 7.77771 16.6666 10.5555 16.6666 15.5555V19.9999H11.6666V25.5555H16.6666V39.9999C18.8888 39.9999 21.1111 39.9999 23.3333 39.9999V25.5555H27.7777Z" fill="white"/>
<defs>
<linearGradient id="paint0_linear_9_568" x1="20" y1="38.8313" x2="20" y2="0" gradientUnits="userSpaceOnUse">
<stop stop-color="#0062E0"/>
<stop offset="1" stop-color="#19AFFF"/>
</linearGradient>
</defs>
</svg>
