<svg width="40" height="40" viewBox="0 0 40 40" fill="none" xmlns="http://www.w3.org/2000/svg">
<path d="M0 13.4167C0 8.67091 0 6.29803 0.938221 4.49188C1.72885 2.96985 2.96985 1.72885 4.49188 0.938221C6.29803 0 8.67091 0 13.4167 0H26.5833C31.3291 0 33.702 0 35.5081 0.938221C37.0301 1.72885 38.2711 2.96985 39.0618 4.49188C40 6.29803 40 8.67091 40 13.4167V26.5833C40 31.3291 40 33.702 39.0618 35.5081C38.2711 37.0301 37.0301 38.2711 35.5081 39.0618C33.702 40 31.3291 40 26.5833 40H13.4167C8.67091 40 6.29803 40 4.49188 39.0618C2.96985 38.2711 1.72885 37.0301 0.938221 35.5081C0 33.702 0 31.3291 0 26.5833V13.4167Z" fill="#1EA1F2"/>
<path fill-rule="evenodd" clip-rule="evenodd" d="M31.1024 15.1268C31.1121 15.3766 31.1153 15.6264 31.1153 15.8762C31.1153 23.4508 25.787 32.1952 16.0433 32.1952C13.0502 32.1952 10.2671 31.2412 7.92212 29.6173C8.33663 29.6627 8.75761 29.6969 9.18504 29.6969C11.6667 29.6969 13.9524 28.7768 15.7655 27.2324C13.4475 27.1983 11.4902 25.529 10.8151 23.2577C11.1392 23.3259 11.4729 23.36 11.8142 23.36C12.2955 23.36 12.7627 23.292 13.2106 23.1557C10.7849 22.6333 8.95786 20.3167 8.95786 17.5344C8.95786 17.5004 8.95786 17.4889 8.95786 17.4662C9.67276 17.8864 10.491 18.1475 11.3599 18.1815C9.93653 17.1481 9.00091 15.388 9.00091 13.4006C9.00091 12.3559 9.26146 11.3678 9.72011 10.5161C12.3321 13.9911 16.2371 16.2737 20.6395 16.5122C20.5491 16.092 20.5028 15.6493 20.5028 15.2064C20.5028 12.038 22.8746 9.47144 25.801 9.47144C27.3244 9.47144 28.7004 10.1643 29.6662 11.2772C30.8752 11.0273 32.0079 10.5504 33.0329 9.89175C32.6356 11.2318 31.7968 12.3558 30.7008 13.0599C31.7732 12.9236 32.796 12.6172 33.7445 12.163C33.0329 13.31 32.1371 14.3205 31.1024 15.1268Z" fill="white"/>
</svg>
