<svg width="40" height="40" viewBox="0 0 40 40" fill="none" xmlns="http://www.w3.org/2000/svg">
<path d="M0 13.4167C0 8.67091 0 6.29803 0.938221 4.49188C1.72885 2.96985 2.96985 1.72885 4.49188 0.938221C6.29803 0 8.67091 0 13.4167 0H26.5833C31.3291 0 33.702 0 35.5081 0.938221C37.0301 1.72885 38.2711 2.96985 39.0618 4.49188C40 6.29803 40 8.67091 40 13.4167V26.5833C40 31.3291 40 33.702 39.0618 35.5081C38.2711 37.0301 37.0301 38.2711 35.5081 39.0618C33.702 40 31.3291 40 26.5833 40H13.4167C8.67091 40 6.29803 40 4.49188 39.0618C2.96985 38.2711 1.72885 37.0301 0.938221 35.5081C0 33.702 0 31.3291 0 26.5833V13.4167Z" fill="url(#paint0_linear_9_569)"/>
<path fill-rule="evenodd" clip-rule="evenodd" d="M21.1616 5.49391C24.7022 5.66792 28.0014 7.12796 30.5212 9.64951C33.2091 12.339 34.6885 15.9142 34.6871 19.7161C34.6839 27.5619 28.2968 33.9455 20.4506 33.9455H20.4447C18.062 33.9447 15.7208 33.3472 13.6414 32.2135L6.09436 34.1922L8.11412 26.8186C6.86827 24.6607 6.21271 22.2128 6.21373 19.7048C6.21688 11.8593 12.6034 5.47632 20.4504 5.47632L21.1616 5.49391ZM13.991 29.6375L14.4232 29.8938C16.2399 30.9714 18.3224 31.5415 20.4458 31.5423H20.4506C26.9725 31.5423 32.2807 26.2367 32.2833 19.7153C32.2846 16.5552 31.0549 13.5837 28.8209 11.3482C26.5867 9.11257 23.6158 7.88068 20.4553 7.87965C13.9283 7.87965 8.62004 13.1848 8.61744 19.7057C8.61655 21.9405 9.24211 24.1169 10.4266 25.9998L10.7079 26.4474L9.51256 30.8117L13.991 29.6375ZM27.6228 23.0999C27.5339 22.9514 27.2968 22.8625 26.9411 22.6845C26.5854 22.5066 24.8365 21.6465 24.5104 21.5277C24.1843 21.4092 23.9472 21.3499 23.7101 21.7057C23.473 22.0616 22.7912 22.8625 22.5837 23.0999C22.3762 23.3371 22.1687 23.3668 21.813 23.1888C21.4573 23.0109 20.3111 22.6354 18.9524 21.4241C17.8949 20.4813 17.181 19.3171 16.9734 18.9611C16.766 18.6052 16.9513 18.4127 17.1294 18.2355C17.2894 18.0761 17.4852 17.8202 17.663 17.6126C17.8409 17.405 17.9001 17.2566 18.0188 17.0194C18.1373 16.7821 18.078 16.5745 17.9891 16.3966C17.9001 16.2185 17.1888 14.4684 16.8924 13.7565C16.6035 13.0633 16.3103 13.1571 16.0919 13.1462C15.8847 13.1359 15.6473 13.1337 15.4102 13.1337C15.173 13.1337 14.7877 13.2226 14.4616 13.5786C14.1355 13.9345 13.2166 14.7947 13.2166 16.5447C13.2166 18.2948 14.4913 19.9854 14.6691 20.2227C14.847 20.4601 17.1775 24.0511 20.7459 25.5914C21.5946 25.9577 22.2572 26.1764 22.7738 26.3403C23.626 26.6109 24.4014 26.5728 25.0143 26.4812C25.6978 26.3791 27.119 25.6211 27.4154 24.7907C27.7118 23.96 27.7118 23.2481 27.6228 23.0999Z" fill="white"/>
<defs>
<linearGradient id="paint0_linear_9_569" x1="20" y1="40" x2="20" y2="0" gradientUnits="userSpaceOnUse">
<stop stop-color="#25CF43"/>
<stop offset="1" stop-color="#61FD7D"/>
</linearGradient>
</defs>
</svg>
